<svg xmlns="http://www.w3.org/2000/svg" version="1.1" xmlns:xlink="http://www.w3.org/1999/xlink" width="512" height="512" x="0" y="0" viewBox="0 0 60 60" style="enable-background:new 0 0 512 512" xml:space="preserve" class=""><g><path fill="#dcedff" d="M7.471 46.5a.5.5 0 0 1-.28-.915l4.44-2.986-5.348 3.085a.5.5 0 0 1-.524-.851l2.98-1.955-1.055.609a.5.5 0 0 1-.532-.845l4.831-3.288-1.775 1.024a.5.5 0 0 1-.537-.842l3.856-2.7-2.2 1.267a.5.5 0 0 1-.529-.846l.838-.566a.516.516 0 0 1-.438-.225.5.5 0 0 1 .119-.675l4.541-3.386-3.377 1.949a.5.5 0 0 1-.546-.835l3.365-2.461-2.46 1.418a.5.5 0 0 1-.539-.841l1.111-.786-.38.218a.5.5 0 0 1-.6-.792l2.9-2.809-2.109 1.217a.5.5 0 0 1-.615-.776l.705-.748-.043.026a.5.5 0 0 1-.73-.576l.253-.85a.492.492 0 0 1-.2-.191.5.5 0 0 1 .182-.682l.5-.29a.5.5 0 0 1 .73.575l-.156.52 1.913-1.1a.5.5 0 0 1 .614.775l-.707.749 2.654-1.531a.5.5 0 0 1 .6.792l-2.9 2.809 6.258-3.614a.5.5 0 0 1 .539.841l-1.11.788 1.011-.583a.5.5 0 0 1 .546.836l-3.358 2.462 2.846-1.643a.5.5 0 0 1 .549.833l-4.542 3.387 4.1-2.367a.5.5 0 0 1 .53.847l-.312.211a.5.5 0 0 1 .429.888l-3.863 2.7 3.534-2.039a.5.5 0 0 1 .531.846l-4.829 3.287 4.574-2.64a.5.5 0 0 1 .524.85L21 36.035l2.75-1.587a.5.5 0 0 1 .529.848l-4.439 2.983 4.3-2.482a.5.5 0 0 1 .534.844L20.6 39.465l4.035-2.329a.5.5 0 0 1 .541.84l-3.4 2.425 3.424-1.978a.5.5 0 0 1 .557.827l-3.403 2.65 3.617-2.088a.5.5 0 0 1 .577.811L23.9 42.905l3.027-1.747a.5.5 0 0 1 .566.821l-.584.476.769-.443a.5.5 0 0 1 .6.792l-.743.72 1.107-.638a.5.5 0 0 1 .737.546l-.355 1.532.717-.414a.5.5 0 1 1 .5.865l-1.714.989a.5.5 0 0 1-.738-.546l.356-1.531-3.614 2.083a.5.5 0 0 1-.6-.792l.744-.722-2.627 1.517a.5.5 0 0 1-.567-.82l.584-.477-2.252 1.3a.5.5 0 0 1-.577-.812l2.652-2.288-5.376 3.1a.5.5 0 0 1-.557-.827l3.406-2.644-6.019 3.475a.5.5 0 0 1-.541-.84l3.39-2.423-5.657 3.267a.5.5 0 0 1-.534-.84l4.087-2.83-6.366 3.677a.494.494 0 0 1-.25.069zM17.374 22.485a.5.5 0 0 1-.312-.89L21.32 18.2l-7.059 4.075a.5.5 0 0 1-.54-.839l4.366-3.108L13.455 21a.5.5 0 0 1-.545-.836l5.952-4.348-6.913 3.991a.5.5 0 0 1-.545-.837l6.737-4.914-7.4 4.27a.5.5 0 0 1-.532-.846l4.02-2.751-4.148 2.4a.5.5 0 0 1-.545-.837l6.613-4.824-6.664 3.845a.5.5 0 0 1-.529-.848l1.744-1.173-1.392.8a.5.5 0 0 1-.548-.834L13.9 9.45l-4.512 2.607a.5.5 0 0 1-.565-.822l4.42-3.58-3 1.73a.5.5 0 0 1-.57-.817l1.96-1.636a.5.5 0 0 1-.035-.884l3.591-2.074a.5.5 0 0 1 .571.816l-.993.829 3.468-2a.5.5 0 0 1 .565.821l-4.419 3.58 6.6-3.812a.5.5 0 0 1 .548.834L16.4 8.849l6.4-3.694a.5.5 0 0 1 .521.845l-1.753 1.18 2.193-1.266a.5.5 0 0 1 .545.837l-6.615 4.825 7.345-4.24a.5.5 0 0 1 .532.846l-4.019 2.75 4.2-2.422a.5.5 0 0 1 .545.837l-6.735 4.914 6.867-3.961a.5.5 0 0 1 .545.836l-5.95 4.346L26.7 12.2a.5.5 0 0 1 .54.84l-4.366 3.107 3.728-2.152a.5.5 0 0 1 .562.823l-4.259 3.4 2.871-1.657a.5.5 0 0 1 .587.8l-3.852 3.515a.5.5 0 0 1-.193.665l-1.508.87a.5.5 0 0 1-.586-.8l2.058-1.877-4.661 2.69a.491.491 0 0 1-.247.061z" opacity="1" data-original="#dcedff" class=""></path><path fill="#c2dbf2" d="M19.08 26.47a.5.5 0 0 1-.337-.869l1.857-1.693-4.325 2.492a.5.5 0 0 1-.646-.128.5.5 0 0 1 .043-.658l2.258-2.262-5.271 3.048a.5.5 0 0 1-.551-.833l.034-.025-.765.441a.5.5 0 0 1-.609-.78l1.887-1.952-2.285 1.315a.5.5 0 0 1-.657-.722L10.6 22.6a.5.5 0 0 1-.391-.912l1.858-1.073a.5.5 0 0 1 .658.723l-.867 1.218 3.387-1.956a.5.5 0 0 1 .609.78l-1.888 1.95L18.7 20.6a.5.5 0 0 1 .551.832l-.033.025L20.7 20.6a.5.5 0 0 1 .6.786l-2.25 2.26 5.028-2.9a.5.5 0 0 1 .587.8l-1.853 1.693 2.535-1.463a.5.5 0 0 1 .61.78l-1.173 1.219.922-.531a.5.5 0 1 1 .5.865L22.231 26.4a.5.5 0 0 1-.61-.779l1.172-1.221-3.463 2a.49.49 0 0 1-.25.07zM4.729 50.5a.5.5 0 0 1-.311-.892l2.239-1.779L4.28 49.2a.5.5 0 0 1-.583-.8l1.681-1.5-1.1.633a.5.5 0 0 1-.673-.7l.867-1.367a.506.506 0 0 1-.591-.225.5.5 0 0 1 .182-.682l1.659-.959a.5.5 0 0 1 .673.7l-.855 1.348 3.56-2.055a.5.5 0 0 1 .583.8L8 45.9l4-2.306a.5.5 0 0 1 .562.824l-2.238 1.777 4.514-2.605a.5.5 0 0 1 .556.828l-1.869 1.445 3.944-2.276a.5.5 0 0 1 .558.826l-2.062 1.616 4.235-2.45a.5.5 0 0 1 .573.814l-2.825 2.4 5.573-3.218a.5.5 0 0 1 .582.807l-3.044 2.7 6.081-3.512a.5.5 0 0 1 .547.835l-.9.665 2.6-1.5a.5.5 0 0 1 .542.839l-.162.116a.5.5 0 0 1 .524.841l-1.4 1.157.844-.488a.5.5 0 0 1 .588.8l-.5.456a.5.5 0 0 1 .655.58l-.3 1.347a.5.5 0 0 1 .07.9l-.5.288a.5.5 0 0 1-.738-.542l.244-1.1-2.854 1.643a.5.5 0 0 1-.588-.8l.466-.427-2.129 1.23a.5.5 0 0 1-.567-.818l1.4-1.156-3.425 1.977a.5.5 0 0 1-.542-.839l.143-.1-1.635.943a.5.5 0 0 1-.668-.159.5.5 0 0 1 .121-.676l.9-.665-2.6 1.5a.5.5 0 0 1-.582-.807l3.045-2.7-6.078 3.509a.5.5 0 0 1-.573-.814l2.825-2.4-5.572 3.217a.5.5 0 0 1-.559-.826l2.064-1.618-4.236 2.451a.5.5 0 0 1-.555-.828l1.868-1.446-3.944 2.277a.491.491 0 0 1-.25.068z" opacity="1" data-original="#c2dbf2"></path><path fill="#a9c6db" d="M16.646 59.47a.5.5 0 0 1-.42-.23.5.5 0 0 1 .128-.677l4.2-3L13.9 59.4a.5.5 0 0 1-.551-.831l5.469-4.145L10.2 59.4a.5.5 0 0 1-.545-.837l4.725-3.446L6.956 59.4a.5.5 0 0 1-.532-.844l2.364-1.62L4.519 59.4a.5.5 0 0 1-.538-.841l3.5-2.458-5.231 3.023a.5.5 0 0 1-.542-.839l3.9-2.8-4.255 2.457a.5.5 0 0 1-.541-.842L3 55.532l-1.724.994a.5.5 0 0 1-.552-.83l1.714-1.3-1.162.67a.5.5 0 0 1-.564-.822l.705-.569-.141.081a.5.5 0 0 1-.639-.746l1.025-1.273a.5.5 0 0 1-.3-.929l2.05-1.184a.5.5 0 0 1 .64.746L3.1 51.545l3.38-1.952a.5.5 0 0 1 .565.821l-.708.571 2.422-1.395a.5.5 0 0 1 .553.83L7.6 51.725l3.7-2.139a.5.5 0 0 1 .541.839L9.65 52l4.185-2.416a.5.5 0 0 1 .542.839l-3.893 2.794 6.3-3.638a.5.5 0 0 1 .537.842l-3.505 2.459 5.729-3.307a.5.5 0 0 1 .532.845l-2.361 1.617 4.272-2.466a.5.5 0 0 1 .545.837l-4.727 3.448 7.431-4.29a.5.5 0 0 1 .552.832l-5.468 4.143 8.628-4.98a.5.5 0 0 1 .541.838l-4.2 3 3.9-2.254a.5.5 0 0 1 .554.831L26.2 54.685l2.248-1.3a.5.5 0 0 1 .606.784l-2.471 2.494.964-.557a.5.5 0 0 1 .69.669l-.785 1.462a.529.529 0 0 1 .095.118.5.5 0 0 1-.184.684l-.618.356a.5.5 0 0 1-.69-.67l.469-.874-2.669 1.549a.5.5 0 0 1-.605-.784l2.472-2.5-5.681 3.284a.5.5 0 0 1-.554-.83l3.541-2.71L16.9 59.4a.5.5 0 0 1-.254.07z" opacity="1" data-original="#a9c6db"></path><path fill="#5a5a63" d="M31.866 45.5a.5.5 0 0 1-.288-.908l8.727-6.156-9.661 5.577a.5.5 0 0 1-.527-.85l5.638-3.742-3.611 2.079a.5.5 0 0 1-.529-.848l4.8-3.213-3.377 1.95a.5.5 0 0 1-.525-.85l2.278-1.5-1.2.694a.5.5 0 0 1-.527-.848l2.907-1.941-1.928 1.113a.5.5 0 0 1-.527-.849l2.257-1.508-1.4.806a.5.5 0 0 1-.541-.839l6.47-4.626-5.545 3.2a.5.5 0 0 1-.548-.834l4.876-3.617-4.078 2.354a.5.5 0 0 1-.556-.829l2.763-2.13-2.062 1.189a.5.5 0 0 1-.554-.829l.519-.4a.5.5 0 0 1-.545-.173.5.5 0 0 1 .045-.659l.945-.939-.3.172a.5.5 0 0 1-.729-.546l.3-1.218a.5.5 0 0 1-.053-.892l.5-.289a.506.506 0 0 1 .551.034.5.5 0 0 1 .185.518l-.233.947 2.608-1.5a.5.5 0 0 1 .6.787l-.944.939 3-1.732a.5.5 0 0 1 .554.829l-.441.34 2.04-1.184a.5.5 0 0 1 .556.828L40.99 25.54l5.14-2.967a.5.5 0 0 1 .548.834l-4.872 3.614 6.914-3.991a.5.5 0 0 1 .541.839L42.788 28.5l5.95-3.434a.5.5 0 0 1 .528.848l-2.251 1.5 1.768-1.02a.5.5 0 0 1 .528.848L46.4 29.183l2.462-1.421a.5.5 0 0 1 .526.849l-2.27 1.5 1.848-1.066a.5.5 0 0 1 .528.848l-4.811 3.221 4.446-2.566a.5.5 0 0 1 .526.85l-5.633 3.739 5.318-3.071a.5.5 0 0 1 .538.841l-8.724 6.155 8.563-4.944a.5.5 0 0 1 .525.85l-1.821 1.2 1.559-.9a.5.5 0 0 1 .553.831L44.6 40.613l5.92-3.418a.5.5 0 0 1 .553.83l-3.461 2.642 3.42-1.974a.5.5 0 0 1 .552.831l-1.371 1.04 1.276-.736a.5.5 0 0 1 .579.81l-1.541 1.345 1.557-.9a.5.5 0 0 1 .6.794l-.622.6.608-.351a.5.5 0 0 1 .648.736l-.328.427.336-.193a.5.5 0 0 1 .749.456l-.03.638a.5.5 0 0 1 .2.931l-.492.284a.5.5 0 0 1-.753-.458l.024-.53-1.712.989a.5.5 0 0 1-.648-.736l.327-.427-2.02 1.166a.5.5 0 0 1-.6-.794l.624-.6-2.417 1.394A.5.5 0 0 1 46 44.6l1.539-1.344-3.737 2.157a.5.5 0 0 1-.552-.831l1.372-1.041-3.248 1.875a.5.5 0 0 1-.554-.83l3.461-2.642-6.021 3.476a.5.5 0 0 1-.553-.831l5.937-4.515-9.268 5.351a.5.5 0 0 1-.525-.85l1.82-1.2-3.558 2.054a.491.491 0 0 1-.247.071zM36.326 20.5a.5.5 0 0 1-.306-.894l1.963-1.529-2.7 1.561a.5.5 0 0 1-.564-.822l1.445-1.167-.881.507a.5.5 0 0 1-.583-.8l.534-.477a.5.5 0 0 1-.69-.561l.32-1.521a.5.5 0 0 1-.081-.9l.5-.289a.5.5 0 0 1 .739.537l-.272 1.275 3.174-1.831a.5.5 0 0 1 .583.806l-.521.464 2.214-1.275a.5.5 0 0 1 .565.821l-1.447 1.169 3.458-2a.5.5 0 0 1 .557.827l-1.967 1.531 4.1-2.364a.5.5 0 0 1 .553.83l-1.618 1.234 3.33-1.923a.5.5 0 0 1 .588.8L46.3 17.271l2.428-1.4a.5.5 0 0 1 .647.737l-1.29 1.676.654-.378a.5.5 0 0 1 .729.577l-.231.764a.509.509 0 0 1 .193.19.5.5 0 0 1-.185.682l-.5.288a.5.5 0 0 1-.727-.578l.128-.426-1.746 1.006a.5.5 0 0 1-.646-.737L47.044 18l-4.19 2.419a.5.5 0 0 1-.588-.8l3.005-2.757-6.171 3.563a.5.5 0 0 1-.553-.83l1.622-1.237-3.593 2.072a.491.491 0 0 1-.25.07z" opacity="1" data-original="#5a5a63"></path><g fill="#6b6b75"><path d="M39.021 24.47a.5.5 0 0 1-.3-.9l.4-.3-1.973 1.13a.5.5 0 0 1-.588-.8l2.049-1.893-4.5 2.6a.5.5 0 0 1-.556-.828l.489-.38-1.02.588a.5.5 0 0 1-.62-.769l1.684-1.845-1.788 1.032a.5.5 0 0 1-.628-.759l.65-.753a.5.5 0 0 1-.107-.912l1.858-1.073a.5.5 0 0 1 .628.76l-.339.392 2.018-1.16a.5.5 0 0 1 .619.769l-1.684 1.845 4.53-2.614a.5.5 0 0 1 .556.827l-.486.379L42 18.6a.5.5 0 0 1 .589.8l-2.049 1.89 4.665-2.69a.5.5 0 0 1 .555.829l-.4.3 1.968-1.129a.5.5 0 0 1 .556.828l-.531.411 2.117-1.222a.5.5 0 0 1 .592.8l-2.092 1.962 3.2-1.851a.5.5 0 0 1 .629.76l-1.531 1.773 1.434-.828a.5.5 0 0 1 .5.866l-3.992 2.3a.5.5 0 0 1-.629-.759l1.529-1.771-4.379 2.531a.5.5 0 0 1-.592-.8l2.094-1.967-4.79 2.767a.5.5 0 0 1-.555-.828l.531-.411-2.148 1.239a.493.493 0 0 1-.25.07zM29.416 51.5a.5.5 0 0 1-.312-.892l3.506-2.792-4.33 2.5a.5.5 0 0 1-.555-.828L29.4 48.2l-1.116.644a.5.5 0 0 1-.593-.8l1.541-1.46-.948.547a.5.5 0 0 1-.654-.727l.667-.916a.5.5 0 0 1-.228-.932l1.657-.956a.5.5 0 0 1 .654.726l-.553.76L32.4 43.6a.5.5 0 0 1 .594.8l-1.542 1.46 3.91-2.26a.5.5 0 0 1 .556.828l-1.669 1.288 3.666-2.116a.5.5 0 0 1 .562.824l-3.508 2.793 6.266-3.617a.5.5 0 0 1 .574.813L37.822 47.8l7.278-4.2a.5.5 0 0 1 .561.823l-3.508 2.8L48.42 43.6a.5.5 0 0 1 .571.815L45.074 47.7l7.111-4.1a.5.5 0 0 1 .573.814l-3.95 3.339 6.279-3.625a.5.5 0 0 1 .562.823l-2.873 2.3 2.943-1.7a.5.5 0 0 1 .61.779l-2.355 2.453 1.759-1.015a.5.5 0 0 1 .658.722l-.642.9a.5.5 0 0 1 .494.869L54.256 51.4a.5.5 0 0 1-.657-.722l.64-.9-2.814 1.624a.5.5 0 0 1-.611-.779l2.356-2.453-5.607 3.236a.5.5 0 0 1-.563-.817l2.874-2.3-5.414 3.126a.5.5 0 0 1-.573-.814l3.951-3.339-7.2 4.157a.5.5 0 0 1-.572-.815l3.916-3.288-7.116 4.108a.5.5 0 0 1-.566-.824l3.509-2.8-6.278 3.624a.5.5 0 0 1-.573-.814l3.986-3.385-7.28 4.2a.491.491 0 0 1-.248.075zM48.03 4.855A.5.5 0 0 1 47.684 4l.471-.454A.5.5 0 0 1 47.6 2.8l.366-.613a.5.5 0 0 1-.135-.919L48.993.6a.5.5 0 0 1 .679.689l-.223.373 1.693-.979a.5.5 0 0 1 .649.131.5.5 0 0 1-.053.662l-.419.4.4-.231a.5.5 0 0 1 .5.866L48.28 4.788a.489.489 0 0 1-.25.067zM40.008 5.7a.5.5 0 0 1-.332-.874l.4-.359a.477.477 0 0 1-.379-.121.5.5 0 0 1-.133-.568l.66-1.6a.5.5 0 0 1-.4-.911L40.993.6a.5.5 0 0 1 .712.624L41.054 2.8l2.62-1.512a.5.5 0 0 1 .582.807l-.364.323a.505.505 0 0 1 .51.244.5.5 0 0 1-.182.683l-3.962 2.284a.489.489 0 0 1-.25.071z" fill="#6b6b75" opacity="1" data-original="#6b6b75" class=""></path><path d="M38.3 15.47a.5.5 0 0 1-.28-.914l1.868-1.256-3.651 2.1a.5.5 0 0 1-.537-.841l6.715-4.712-8.781 5.069a.5.5 0 0 1-.535-.844l2.23-1.545-2.584 1.492a.5.5 0 0 1-.531-.846l.484-.33-.348.2a.5.5 0 0 1-.533-.846l1.1-.751-.635.366a.5.5 0 0 1-.6-.787l2.659-2.642-2.061 1.19a.5.5 0 0 1-.616-.773l1.665-1.788-1.049.605a.5.5 0 0 1-.579-.808l.338-.3a.45.45 0 0 1-.393-.18.5.5 0 0 1 0-.644L33.6 3.4l-1.315.758a.5.5 0 0 1-.706-.638l.6-1.323a.5.5 0 0 1-.338-.924L32.994.6a.5.5 0 0 1 .706.638l-.576 1.276 2.465-1.423a.5.5 0 0 1 .631.756l-1.945 2.292 1.445-.834a.5.5 0 0 1 .579.808l-.339.3a.533.533 0 0 1 .4.189.5.5 0 0 1-.025.652l-1.664 1.785 2.5-1.441a.5.5 0 0 1 .647.129.5.5 0 0 1-.044.658l-2.66 2.641 8.606-4.969a.5.5 0 0 1 .532.845l-1.1.75.784-.452a.5.5 0 0 1 .532.846l-.487.331 1.354-.777a.5.5 0 0 1 .535.843l-2.232 1.545 8.082-4.666a.5.5 0 0 1 .537.842l-6.714 4.711L51.72 5.31a.5.5 0 0 1 .529.846l-1.868 1.262 1.339-.772a.5.5 0 0 1 .532.845l-.675.461.143-.082a.5.5 0 0 1 .564.821l-3.3 2.676 2.738-1.58a.5.5 0 0 1 .605.784L50.24 12.68l1.462-.843a.5.5 0 0 1 .608.782l-.688.7a.486.486 0 0 1 .2.191.5.5 0 0 1-.182.682l-2.05 1.184a.5.5 0 0 1-.607-.782l.077-.078-1.532.882a.5.5 0 0 1-.605-.784L49 12.511 43.993 15.4a.5.5 0 0 1-.564-.821l3.3-2.677-6.059 3.5a.5.5 0 0 1-.532-.845l.674-.461-2.261 1.304a.5.5 0 0 1-.251.07z" fill="#6b6b75" opacity="1" data-original="#6b6b75" class=""></path></g><path fill="#5a5a63" d="M39.193 59.47a.5.5 0 0 1-.276-.917l.025-.017-1.5.866a.5.5 0 0 1-.55-.832l5.354-4.04-8.44 4.87a.5.5 0 0 1-.555-.829l5.593-4.289-8.866 5.118a.5.5 0 0 1-.541-.839l4.231-3.035-6.676 3.854a.5.5 0 0 1-.538-.841l3.686-2.6-4.513 2.6a.5.5 0 0 1-.55-.833l4.061-3.037L25.28 56.9a.5.5 0 0 1-.555-.828l2.438-1.883-1.883 1.085a.5.5 0 0 1-.575-.812l1.529-1.313-.954.551a.5.5 0 0 1-.636-.749l1-1.216a.488.488 0 0 1-.457-.249.5.5 0 0 1 .182-.682l2.05-1.184a.5.5 0 0 1 .637.749l-.9 1.095 3.232-1.864a.5.5 0 0 1 .575.812l-1.528 1.311 3.678-2.123a.5.5 0 0 1 .556.828l-2.44 1.885 4.7-2.713a.5.5 0 0 1 .667.157.5.5 0 0 1-.117.676l-4.063 3.037 6.707-3.87a.5.5 0 0 1 .538.84l-3.685 2.6 5.965-3.44a.5.5 0 0 1 .541.839l-4.23 3.034 6.71-3.873a.5.5 0 0 1 .555.829l-5.594 4.29 8.868-5.119a.5.5 0 0 1 .551.832l-5.355 4.04 8.44-4.872a.5.5 0 0 1 .526.849l-.025.017 1.5-.866a.5.5 0 0 1 .539.84l-3.807 2.7 5.731-3.308a.5.5 0 0 1 .556.827L51.986 54.9l6.4-3.693a.5.5 0 0 1 .564.821l-4.094 3.307L58.72 53.1a.5.5 0 0 1 .546.835l-.36.264a.5.5 0 0 1 .391.874l-.973.844.4-.229a.5.5 0 0 1 .624.764l-.546.616a.5.5 0 0 1 .336.926L56.7 59.4a.5.5 0 0 1-.624-.763l.481-.544-2.266 1.307a.5.5 0 0 1-.577-.81l.973-.844-2.866 1.654a.5.5 0 0 1-.546-.836l.077-.055-1.545.891a.5.5 0 0 1-.565-.821l4.094-3.307-7.15 4.128a.5.5 0 0 1-.557-.827l5.462-4.247L42.3 59.4a.5.5 0 0 1-.539-.84l3.81-2.7-6.128 3.54a.5.5 0 0 1-.25.07z" opacity="1" data-original="#5a5a63"></path><path fill="#262626" d="M56.728 49.625c.035-2.134.626-5.5-2.042-5.86-4.163-5.365-4.766-12.728-4.952-19.313 3.755-.345 3.984-5.9-.01-5.913v-3.39a3.608 3.608 0 0 0 3-3.66c-.709-2.717 1.808-10.456-1.69-10.8-3.456-.582-4.166 1.431-3.758 4.441.046.573.293.565-.327.565-3.421.777-1.635-2.8-2.482-4.551-4.206-1.574-6.032.171-5.061 4.556-.9.007-2.656.374-2.682-1.029.744-4.396-1.506-4.862-5.039-3.371-1.06 3.3-.185 7.366-.41 10.893.08 2.075 1.412 2.785 3 3.019v3.348c-3.8.283-3.975 5.866-.005 5.9-.089 6.419-.766 13.25-4.29 18.789-5.187-3.848-6.117-11.025-6.242-17.058 3.892-.261 3.851-5.826-.221-5.467 5.554-3.506 5.551-12.339-.146-15.736-10.11-6.584-21.273 8.885-11 15.824-3.833-.056-4.122 5.634-.109 5.462-.1 6.257-1.1 13.991-6.893 17.558-2.725.612-2.053 3.784-2.1 5.9-3.736.28-4.539 9.023-.872 9.674 8.866.115 17.823-.036 26.692.044h27.64c2.053-.045 3.029-1.457 3-3.353.253-2.476.223-6.236-3.001-6.472zm-1.431-.1c-8.864.064-17.714 0-26.576.008.377-1.515-.705-3.954.673-5.151a.912.912 0 0 0 1.131-.139c7.625.125 15.259-.065 22.883.054 2.292.169 2.003 3.237 1.892 5.229zM33.134 13.32c-.985-3.652-.161-7.721-.41-11.509-.077-.544-.272-.506.327-.506.538 0 1.555-.191 1.974.238.831 2.806-1.048 5.519 3.665 4.76 2.588.05 2.064-2.712 2.034-4.481-.075-.55.327-.517.327-.517 2.631-.667 2.344 2 2.224 3.825.387 2 5.153 1.672 5.449-.324.263-.7-.475-3.791.327-3.5 4.239-.953 1.5 8.225 2.225 10.884a2.361 2.361 0 0 1-2.584 2.51c-4.933-.774-11.525 1.741-15.558-1.38zm4.593 1.985c3.515 0 7.033.009 10.549 0v3.211H35.724v-3.19c.699.006 1.391-.021 2.003-.021zm-4.485 4.7c4.84-1.372 10.57-.1 15.7-.52 2.5-.342 3.3 3.78.639 4.023-3.346-.943-19.481 2.837-16.339-3.5zm-.024 19.5a41.727 41.727 0 0 0 2.5-15.019H48.28c.114 6.568.757 13.677 4.593 19.226-7.334.063-14.677-.148-22.009.006a14.271 14.271 0 0 0 2.354-4.21zM9.736 13.211c1.87-18.7 27.034-2.779 11.89 7.514-2.364-.009-4.672.017-7.044-.014a8.973 8.973 0 0 1-4.846-7.5zm1.614 8.5c3-1.017 6.8-.138 10.137-.443.186.311.8.3 1.146 0 2.638-.476 3.788 4.122 1.041 4.455-.2-.359-.91-.3-1.236 0-2.919-.031-5.837.059-8.758.022-.164-.32-.735-.312-1.1-.105a2.415 2.415 0 0 1-1.23-3.932zM8.941 42.315c3.815-4.353 4.705-10.441 4.783-16.04h8.547c.074 6.152 1.073 13.24 6.073 17.41-6.941-.026-13.871.055-20.813-.042a11.173 11.173 0 0 0 1.41-1.328zm-3.025 1.169c-.041.024-.052.029 0 0zm-.348.909c7.469-.262 15.245.02 22.836-.078-1.759 1.046-1.107 3.5-1.145 5.248-7.512-.008-15.03-.095-22.541 0-.055-1.363-.469-4.586.85-5.17zM4.2 58.566c-2.075.389-2.687-1.35-2.473-3.035 0-1.908-.439-4.969 2.267-5.1 7.22-.19 14.466.094 21.692 0-2.049 1.713-1.858 5.9-.9 8.132zm52.91-.018H27.861c-2.98.192-2.1-3.564-2.133-5.5-.566-5.1 18.812-1.645 22.963-2.6 3.131.459 9.368-1.77 9.581 3 .016 1.177.574 4.925-1.162 5.1z" opacity="1" data-original="#262626" class=""></path></g></svg>
